<svg width="480" height="220" viewBox="100 120 480 220" xmlns="http://www.w3.org/2000/svg">
  <!-- M Suite — primary (light) wordmark -->
  <path transform="translate(110.00,150.00) scale(0.04800,-0.04800)" d="M140 0V1440H384L860 484L1336 1440H1580V0H1326V860L908 0H812L394 860V0Z" fill="#1A2540"/>
  <path transform="translate(189.20,150.00) scale(0.04800,-0.04800)" d="M629 -30Q481 -30 362.5 19.0Q244 68 166.5 158.0Q89 248 63 372L181 392Q218 248 339.5 165.0Q461 82 632 82Q748 82 837.0 119.0Q926 156 976.0 223.5Q1026 291 1026 381Q1026 446 1002.5 490.0Q979 534 942.0 562.5Q905 591 863.0 608.5Q821 626 784 637L422 745Q350 766 293.5 797.5Q237 829 198.5 870.5Q160 912 139.5 965.0Q119 1018 119 1083Q119 1199 181.0 1286.0Q243 1373 351.5 1421.5Q460 1470 601 1470Q743 1469 856.0 1417.5Q969 1366 1041.5 1272.0Q1114 1178 1135 1049L1016 1028Q1002 1127 944.5 1201.0Q887 1275 798.0 1316.0Q709 1357 600 1357Q495 1358 414.5 1322.0Q334 1286 288.0 1225.0Q242 1164 242 1087Q242 1007 285.5 959.5Q329 912 392.5 885.0Q456 858 514 841L804 755Q845 743 902.0 721.0Q959 699 1014.0 658.5Q1069 618 1105.5 551.5Q1142 485 1142 385Q1142 288 1105.0 211.0Q1068 134 999.0 80.5Q930 27 836.0 -1.5Q742 -30 629 -30Z" fill="#1A2540"/>
  <path transform="translate(243.68,150.00) scale(0.04800,-0.04800)" d="M555 -25Q466 -25 395.5 1.0Q325 27 273.0 74.5Q221 122 187.0 186.5Q153 251 136.5 328.0Q120 405 120 489V1080H236V518Q236 416 256.5 336.0Q277 256 318.5 200.0Q360 144 422.5 115.0Q485 86 570 86Q658 86 722.5 116.5Q787 147 828.5 202.0Q870 257 890.5 332.5Q911 408 911 497L1002 486Q1002 311 942.5 197.5Q883 84 782.0 29.5Q681 -25 555 -25ZM922 0V243H911V1080H1027V0Z" fill="#1A2540"/>
  <path transform="translate(296.34,150.00) scale(0.04800,-0.04800)" d="M160 1298V1445H275V1298ZM160 0V1080H275V0Z" fill="#1A2540"/>
  <path transform="translate(313.86,150.00) scale(0.04800,-0.04800)" d="M713 0Q627 -19 543.0 -14.5Q459 -10 393.5 23.5Q328 57 295 127Q268 184 265.0 242.0Q262 300 262 375V1380H378V377Q378 309 379.5 264.5Q381 220 400 183Q436 114 514.0 99.5Q592 85 713 104ZM20 975V1080H713V975Z" fill="#1A2540"/>
  <path transform="translate(347.94,150.00) scale(0.04800,-0.04800)" d="M585 -30Q430 -30 317.0 39.5Q204 109 142.0 236.5Q80 364 80 538Q80 715 141.5 843.5Q203 972 315.5 1041.0Q428 1110 583 1110Q740 1110 851.5 1038.5Q963 967 1021.5 832.0Q1080 697 1077 507H957V547Q952 769 857.0 885.0Q762 1001 585 1001Q402 1001 302.5 880.5Q203 760 203 540Q203 322 302.5 202.0Q402 82 583 82Q708 82 801.5 140.5Q895 199 950 308L1054 262Q989 122 866.0 46.0Q743 -30 585 -30ZM159 507V611H1012V507Z" fill="#1A2540"/>
  <!-- tagline: RUN YOUR BUSINESS AS ONE -->
  <path transform="translate(114.00,194.00) scale(0.01050,-0.01050)" d="M140 0V1440H735Q756 1440 789.0 1438.5Q822 1437 850 1432Q975 1413 1056.5 1349.0Q1138 1285 1177.5 1187.5Q1217 1090 1217 971Q1217 795 1128.0 668.5Q1039 542 855 512L752 503H381V0ZM967 0 683 586 928 640 1240 0ZM381 728H725Q745 728 770.0 730.0Q795 732 816 738Q876 753 910.5 791.0Q945 829 959.5 877.0Q974 925 974 971Q974 1017 959.5 1065.5Q945 1114 910.5 1152.0Q876 1190 816 1205Q795 1211 770.0 1212.5Q745 1214 725 1214H381Z" fill="#6B7A99"/>
  <path transform="translate(134.36,194.00) scale(0.01050,-0.01050)" d="M720 -30Q548 -30 417.5 40.0Q287 110 213.5 237.0Q140 364 140 535V1438L384 1440V541Q384 460 411.5 396.0Q439 332 486.0 287.5Q533 243 594.0 220.0Q655 197 720 197Q787 197 847.5 220.5Q908 244 955.0 288.5Q1002 333 1029.0 397.0Q1056 461 1056 541V1440H1300V535Q1300 364 1226.5 237.0Q1153 110 1022.5 40.0Q892 -30 720 -30Z" fill="#6B7A99"/>
  <path transform="translate(155.98,194.00) scale(0.01050,-0.01050)" d="M140 0V1440H384L1052 425V1440H1296V0H1052L384 1015V0Z" fill="#6B7A99"/>
  <path transform="translate(188.26,194.00) scale(0.01050,-0.01050)" d="M490 0V590L0 1440H281L612 866L942 1440H1223L734 590V0Z" fill="#6B7A99"/>
  <path transform="translate(207.60,194.00) scale(0.01050,-0.01050)" d="M749 -30Q533 -30 379.0 64.5Q225 159 142.5 328.0Q60 497 60 720Q60 943 142.5 1112.0Q225 1281 379.0 1375.5Q533 1470 749 1470Q965 1470 1119.5 1375.5Q1274 1281 1356.5 1112.0Q1439 943 1439 720Q1439 497 1356.5 328.0Q1274 159 1119.5 64.5Q965 -30 749 -30ZM749 197Q894 196 990.5 261.0Q1087 326 1135.5 444.0Q1184 562 1184 720Q1184 878 1135.5 994.5Q1087 1111 990.5 1176.0Q894 1241 749 1243Q604 1244 508.0 1179.0Q412 1114 363.5 996.0Q315 878 315 720Q315 562 363.0 445.5Q411 329 507.5 264.0Q604 199 749 197Z" fill="#6B7A99"/>
  <path transform="translate(229.84,194.00) scale(0.01050,-0.01050)" d="M720 -30Q548 -30 417.5 40.0Q287 110 213.5 237.0Q140 364 140 535V1438L384 1440V541Q384 460 411.5 396.0Q439 332 486.0 287.5Q533 243 594.0 220.0Q655 197 720 197Q787 197 847.5 220.5Q908 244 955.0 288.5Q1002 333 1029.0 397.0Q1056 461 1056 541V1440H1300V535Q1300 364 1226.5 237.0Q1153 110 1022.5 40.0Q892 -30 720 -30Z" fill="#6B7A99"/>
  <path transform="translate(251.46,194.00) scale(0.01050,-0.01050)" d="M140 0V1440H735Q756 1440 789.0 1438.5Q822 1437 850 1432Q975 1413 1056.5 1349.0Q1138 1285 1177.5 1187.5Q1217 1090 1217 971Q1217 795 1128.0 668.5Q1039 542 855 512L752 503H381V0ZM967 0 683 586 928 640 1240 0ZM381 728H725Q745 728 770.0 730.0Q795 732 816 738Q876 753 910.5 791.0Q945 829 959.5 877.0Q974 925 974 971Q974 1017 959.5 1065.5Q945 1114 910.5 1152.0Q876 1190 816 1205Q795 1211 770.0 1212.5Q745 1214 725 1214H381Z" fill="#6B7A99"/>
  <path transform="translate(282.52,194.00) scale(0.01050,-0.01050)" d="M140 0V1440H711Q857 1440 950.5 1381.5Q1044 1323 1089.5 1232.0Q1135 1141 1135 1044Q1135 925 1078.5 842.0Q1022 759 925 730V780Q1061 749 1131.5 651.0Q1202 553 1202 428Q1202 300 1153.0 204.0Q1104 108 1007.5 54.0Q911 0 769 0ZM384 227H739Q802 227 852.0 252.5Q902 278 930.5 324.5Q959 371 959 435Q959 493 934.0 539.0Q909 585 861.0 612.5Q813 640 746 640H384ZM384 865H708Q760 865 801.0 885.0Q842 905 866.0 944.0Q890 983 890 1040Q890 1115 842.0 1165.0Q794 1215 708 1215H384Z" fill="#6B7A99"/>
  <path transform="translate(302.27,194.00) scale(0.01050,-0.01050)" d="M720 -30Q548 -30 417.5 40.0Q287 110 213.5 237.0Q140 364 140 535V1438L384 1440V541Q384 460 411.5 396.0Q439 332 486.0 287.5Q533 243 594.0 220.0Q655 197 720 197Q787 197 847.5 220.5Q908 244 955.0 288.5Q1002 333 1029.0 397.0Q1056 461 1056 541V1440H1300V535Q1300 364 1226.5 237.0Q1153 110 1022.5 40.0Q892 -30 720 -30Z" fill="#6B7A99"/>
  <path transform="translate(323.89,194.00) scale(0.01050,-0.01050)" d="M673 -30Q515 -30 388.5 25.0Q262 80 180.5 182.5Q99 285 77 426L327 464Q359 336 458.5 266.0Q558 196 688 196Q765 196 833.0 220.0Q901 244 943.5 290.0Q986 336 986 403Q986 433 976.0 458.5Q966 484 946.5 504.0Q927 524 896.5 540.5Q866 557 826 569L454 679Q406 693 350.5 716.5Q295 740 245.5 781.5Q196 823 164.5 887.5Q133 952 133 1047Q133 1186 203.5 1280.5Q274 1375 393.5 1422.0Q513 1469 659 1468Q807 1467 923.0 1417.5Q1039 1368 1117.0 1274.0Q1195 1180 1227 1047L968 1002Q952 1078 906.5 1131.5Q861 1185 795.5 1213.0Q730 1241 656 1243Q584 1244 522.5 1221.5Q461 1199 423.5 1157.0Q386 1115 386 1059Q386 1006 418.0 972.5Q450 939 497.5 919.5Q545 900 594 887L852 815Q905 801 971.0 777.0Q1037 753 1098.0 710.0Q1159 667 1198.5 597.0Q1238 527 1238 419Q1238 307 1191.5 222.5Q1145 138 1066.0 82.0Q987 26 885.5 -2.0Q784 -30 673 -30Z" fill="#6B7A99"/>
  <path transform="translate(344.20,194.00) scale(0.01050,-0.01050)" d="M160 0V1440H401V0Z" fill="#6B7A99"/>
  <path transform="translate(356.59,194.00) scale(0.01050,-0.01050)" d="M140 0V1440H384L1052 425V1440H1296V0H1052L384 1015V0Z" fill="#6B7A99"/>
  <path transform="translate(378.17,194.00) scale(0.01050,-0.01050)" d="M140 0V1440H1070V1214H381V859H950V633H381V226H1070V0Z" fill="#6B7A99"/>
  <path transform="translate(396.95,194.00) scale(0.01050,-0.01050)" d="M673 -30Q515 -30 388.5 25.0Q262 80 180.5 182.5Q99 285 77 426L327 464Q359 336 458.5 266.0Q558 196 688 196Q765 196 833.0 220.0Q901 244 943.5 290.0Q986 336 986 403Q986 433 976.0 458.5Q966 484 946.5 504.0Q927 524 896.5 540.5Q866 557 826 569L454 679Q406 693 350.5 716.5Q295 740 245.5 781.5Q196 823 164.5 887.5Q133 952 133 1047Q133 1186 203.5 1280.5Q274 1375 393.5 1422.0Q513 1469 659 1468Q807 1467 923.0 1417.5Q1039 1368 1117.0 1274.0Q1195 1180 1227 1047L968 1002Q952 1078 906.5 1131.5Q861 1185 795.5 1213.0Q730 1241 656 1243Q584 1244 522.5 1221.5Q461 1199 423.5 1157.0Q386 1115 386 1059Q386 1006 418.0 972.5Q450 939 497.5 919.5Q545 900 594 887L852 815Q905 801 971.0 777.0Q1037 753 1098.0 710.0Q1159 667 1198.5 597.0Q1238 527 1238 419Q1238 307 1191.5 222.5Q1145 138 1066.0 82.0Q987 26 885.5 -2.0Q784 -30 673 -30Z" fill="#6B7A99"/>
  <path transform="translate(417.26,194.00) scale(0.01050,-0.01050)" d="M673 -30Q515 -30 388.5 25.0Q262 80 180.5 182.5Q99 285 77 426L327 464Q359 336 458.5 266.0Q558 196 688 196Q765 196 833.0 220.0Q901 244 943.5 290.0Q986 336 986 403Q986 433 976.0 458.5Q966 484 946.5 504.0Q927 524 896.5 540.5Q866 557 826 569L454 679Q406 693 350.5 716.5Q295 740 245.5 781.5Q196 823 164.5 887.5Q133 952 133 1047Q133 1186 203.5 1280.5Q274 1375 393.5 1422.0Q513 1469 659 1468Q807 1467 923.0 1417.5Q1039 1368 1117.0 1274.0Q1195 1180 1227 1047L968 1002Q952 1078 906.5 1131.5Q861 1185 795.5 1213.0Q730 1241 656 1243Q584 1244 522.5 1221.5Q461 1199 423.5 1157.0Q386 1115 386 1059Q386 1006 418.0 972.5Q450 939 497.5 919.5Q545 900 594 887L852 815Q905 801 971.0 777.0Q1037 753 1098.0 710.0Q1159 667 1198.5 597.0Q1238 527 1238 419Q1238 307 1191.5 222.5Q1145 138 1066.0 82.0Q987 26 885.5 -2.0Q784 -30 673 -30Z" fill="#6B7A99"/>
  <path transform="translate(448.27,194.00) scale(0.01050,-0.01050)" d="M40 0 494 1440H847L1301 0H1053L641 1292H695L288 0ZM293 312V537H1049V312Z" fill="#6B7A99"/>
  <path transform="translate(468.85,194.00) scale(0.01050,-0.01050)" d="M673 -30Q515 -30 388.5 25.0Q262 80 180.5 182.5Q99 285 77 426L327 464Q359 336 458.5 266.0Q558 196 688 196Q765 196 833.0 220.0Q901 244 943.5 290.0Q986 336 986 403Q986 433 976.0 458.5Q966 484 946.5 504.0Q927 524 896.5 540.5Q866 557 826 569L454 679Q406 693 350.5 716.5Q295 740 245.5 781.5Q196 823 164.5 887.5Q133 952 133 1047Q133 1186 203.5 1280.5Q274 1375 393.5 1422.0Q513 1469 659 1468Q807 1467 923.0 1417.5Q1039 1368 1117.0 1274.0Q1195 1180 1227 1047L968 1002Q952 1078 906.5 1131.5Q861 1185 795.5 1213.0Q730 1241 656 1243Q584 1244 522.5 1221.5Q461 1199 423.5 1157.0Q386 1115 386 1059Q386 1006 418.0 972.5Q450 939 497.5 919.5Q545 900 594 887L852 815Q905 801 971.0 777.0Q1037 753 1098.0 710.0Q1159 667 1198.5 597.0Q1238 527 1238 419Q1238 307 1191.5 222.5Q1145 138 1066.0 82.0Q987 26 885.5 -2.0Q784 -30 673 -30Z" fill="#6B7A99"/>
  <path transform="translate(499.85,194.00) scale(0.01050,-0.01050)" d="M749 -30Q533 -30 379.0 64.5Q225 159 142.5 328.0Q60 497 60 720Q60 943 142.5 1112.0Q225 1281 379.0 1375.5Q533 1470 749 1470Q965 1470 1119.5 1375.5Q1274 1281 1356.5 1112.0Q1439 943 1439 720Q1439 497 1356.5 328.0Q1274 159 1119.5 64.5Q965 -30 749 -30ZM749 197Q894 196 990.5 261.0Q1087 326 1135.5 444.0Q1184 562 1184 720Q1184 878 1135.5 994.5Q1087 1111 990.5 1176.0Q894 1241 749 1243Q604 1244 508.0 1179.0Q412 1114 363.5 996.0Q315 878 315 720Q315 562 363.0 445.5Q411 329 507.5 264.0Q604 199 749 197Z" fill="#6B7A99"/>
  <path transform="translate(522.09,194.00) scale(0.01050,-0.01050)" d="M140 0V1440H384L1052 425V1440H1296V0H1052L384 1015V0Z" fill="#6B7A99"/>
  <path transform="translate(543.67,194.00) scale(0.01050,-0.01050)" d="M140 0V1440H1070V1214H381V859H950V633H381V226H1070V0Z" fill="#6B7A99"/>
</svg>
